<svg width="28" height="28" fill="none" xmlns="http://www.w3.org/2000/svg"><mask id="a" style="mask-type:alpha" maskUnits="userSpaceOnUse" x="7" y="7" width="14" height="14"><path d="M15.945 20.75v-4.904h1.663l.248-1.864h-1.911v-1.207c0-.55.15-.924.948-.924h1.044v-1.718a14.788 14.788 0 0 0-1.496-.07c-1.468 0-2.46.892-2.46 2.512v1.407h-1.668v1.864h1.667l-.004 4.904H8.375c-.615 0-1.125-.51-1.125-1.125V8.375c0-.615.51-1.125 1.125-1.125h11.25c.615 0 1.125.51 1.125 1.125v11.25c0 .615-.51 1.125-1.125 1.125h-3.68Z" fill="#fff"/></mask><g mask="url(#a)"><path d="M15.945 20.75v-4.904h1.663l.248-1.864h-1.911v-1.207c0-.55.15-.924.948-.924h1.044v-1.718a14.788 14.788 0 0 0-1.496-.07c-1.468 0-2.46.892-2.46 2.512v1.407h-1.668v1.864h1.667l-.004 4.904H8.375c-.615 0-1.125-.51-1.125-1.125V8.375c0-.615.51-1.125 1.125-1.125h11.25c.615 0 1.125.51 1.125 1.125v11.25c0 .615-.51 1.125-1.125 1.125h-3.68Z" fill="#fff"/></g></svg>