<svg width="28" height="28" fill="none" xmlns="http://www.w3.org/2000/svg"><path fill-rule="evenodd" clip-rule="evenodd" d="M7.25 11.146a3.896 3.896 0 0 1 3.896-3.896h5.708a3.896 3.896 0 0 1 3.896 3.896v5.708a3.896 3.896 0 0 1-3.896 3.896h-5.708a3.896 3.896 0 0 1-3.896-3.896v-5.708Zm1.222.116v5.476c0 1.543 1.25 2.79 2.79 2.79h5.476c1.543 0 2.79-1.25 2.79-2.79v-5.476c0-1.543-1.25-2.79-2.79-2.79h-5.476a2.788 2.788 0 0 0-2.79 2.79ZM14 17.433a3.433 3.433 0 1 1 0-6.866 3.433 3.433 0 0 1 0 6.866Zm0-1.222a2.211 2.211 0 1 0 0-4.422 2.211 2.211 0 0 0 0 4.422Zm3.55-5.004a.815.815 0 1 1 0-1.63.815.815 0 0 1 0 1.63Z" fill="#fff"/></svg>