<svg width="28" height="28" fill="none" xmlns="http://www.w3.org/2000/svg"><mask id="a" style="mask-type:alpha" maskUnits="userSpaceOnUse" x="6" y="8" width="16" height="12"><path d="M14 8.375c2.118 0 3.99.22 5.133.387.945.138 1.707.85 1.88 1.793.15.804.3 1.98.3 3.445 0 1.465-.152 2.64-.3 3.445a2.226 2.226 0 0 1-1.88 1.793 36.327 36.327 0 0 1-5.133.387c-2.107 0-3.986-.22-5.133-.387a2.226 2.226 0 0 1-1.88-1.793 19.195 19.195 0 0 1-.3-3.445c0-1.47.152-2.643.3-3.445a2.229 2.229 0 0 1 1.88-1.793A36.13 36.13 0 0 1 14 8.375Zm-1.688 2.408v6.434l.844-.475 3.938-2.25.843-.492-.843-.492-3.938-2.25-.844-.475Z" fill="#fff"/></mask><g mask="url(#a)"><path d="M14 8.375c2.118 0 3.99.22 5.133.387.945.138 1.707.85 1.88 1.793.15.804.3 1.98.3 3.445 0 1.465-.152 2.64-.3 3.445a2.226 2.226 0 0 1-1.88 1.793 36.327 36.327 0 0 1-5.133.387c-2.107 0-3.986-.22-5.133-.387a2.226 2.226 0 0 1-1.88-1.793 19.195 19.195 0 0 1-.3-3.445c0-1.47.152-2.643.3-3.445a2.229 2.229 0 0 1 1.88-1.793A36.13 36.13 0 0 1 14 8.375Zm-1.688 2.408v6.434l.844-.475 3.938-2.25.843-.492-.843-.492-3.938-2.25-.844-.475Z" fill="#fff"/></g></svg>